<svg width="372" height="144" viewBox="0 0 372 144" fill="none" xmlns="http://www.w3.org/2000/svg">
<g filter="url(#filter0_d_320_2882)">
<path d="M15.4976 64.3137L64.2429 11.5159C66.7128 8.84061 71.1818 10.5882 71.1818 14.2292V50.3033C71.1818 51.233 70.858 52.1337 70.2659 52.8505L60.5484 64.6164C59.3816 66.029 59.3238 68.0538 60.4081 69.5307L70.4062 83.1494C70.9101 83.8358 71.1818 84.665 71.1818 85.5165V120.145C71.1818 123.792 66.7005 125.536 64.2347 122.849L15.4894 69.7316C14.0824 68.1985 14.086 65.8426 15.4976 64.3137Z" fill="#FE7600"/>
<path d="M15.4976 64.3137L64.2429 11.5159C66.7128 8.84061 71.1818 10.5882 71.1818 14.2292V50.3033C71.1818 51.233 70.858 52.1337 70.2659 52.8505L60.5484 64.6164C59.3816 66.029 59.3238 68.0538 60.4081 69.5307L70.4062 83.1494C70.9101 83.8358 71.1818 84.665 71.1818 85.5165V120.145C71.1818 123.792 66.7005 125.536 64.2347 122.849L15.4894 69.7316C14.0824 68.1985 14.086 65.8426 15.4976 64.3137Z" stroke="#FE7600" stroke-width="4"/>
</g>
<g filter="url(#filter1_d_320_2882)">
<path d="M82.4928 85.8471V121.696C82.4928 125.347 86.9819 127.09 89.4451 124.395L138.533 70.6989C139.93 69.1708 139.93 66.8292 138.533 65.3011L89.4451 11.6049C86.9819 8.91048 82.4928 10.6532 82.4928 14.3038V52.6369C82.4928 53.6441 82.1128 54.6142 81.4288 55.3535L72.0289 65.5127C70.7009 66.948 70.6052 69.133 71.8027 70.6789L81.655 83.3975C82.1981 84.0986 82.4928 84.9603 82.4928 85.8471Z" fill="#585556"/>
<path d="M82.4928 85.8471V121.696C82.4928 125.347 86.9819 127.09 89.4451 124.395L138.533 70.6989C139.93 69.1708 139.93 66.8292 138.533 65.3011L89.4451 11.6049C86.9819 8.91048 82.4928 10.6532 82.4928 14.3038V52.6369C82.4928 53.6441 82.1128 54.6142 81.4288 55.3535L72.0289 65.5127C70.7009 66.948 70.6052 69.133 71.8027 70.6789L81.655 83.3975C82.1981 84.0986 82.4928 84.9603 82.4928 85.8471Z" stroke="#585556" stroke-width="4"/>
</g>
<path d="M173.18 28.24H186.64V29.92C186.64 31.8133 186.32 33.58 185.68 35.22C185.053 36.86 184.153 38.3 182.98 39.54C181.807 40.78 180.407 41.7467 178.78 42.44C177.153 43.1333 175.353 43.48 173.38 43.48C171.34 43.48 169.487 43.1333 167.82 42.44C166.167 41.7333 164.74 40.7533 163.54 39.5C162.34 38.2467 161.42 36.7933 160.78 35.14C160.14 33.4733 159.82 31.6867 159.82 29.78C159.82 27.8867 160.14 26.1133 160.78 24.46C161.42 22.7933 162.34 21.34 163.54 20.1C164.74 18.8467 166.167 17.8733 167.82 17.18C169.487 16.4733 171.34 16.12 173.38 16.12C175.047 16.12 176.513 16.3 177.78 16.66C179.06 17.02 180.16 17.5 181.08 18.1C182 18.7 182.78 19.36 183.42 20.08C184.06 20.7867 184.593 21.48 185.02 22.16L179.34 24.84C178.793 24 178.047 23.2667 177.1 22.64C176.167 22.0133 174.927 21.7 173.38 21.7C172.3 21.7 171.307 21.9133 170.4 22.34C169.507 22.7667 168.733 23.3533 168.08 24.1C167.427 24.8333 166.92 25.6933 166.56 26.68C166.213 27.6533 166.04 28.6867 166.04 29.78C166.04 30.8867 166.213 31.9267 166.56 32.9C166.92 33.8733 167.427 34.7333 168.08 35.48C168.733 36.2267 169.507 36.8133 170.4 37.24C171.307 37.6533 172.3 37.86 173.38 37.86C174.327 37.86 175.187 37.74 175.96 37.5C176.733 37.26 177.4 36.9133 177.96 36.46C178.533 36.0067 178.98 35.4733 179.3 34.86C179.633 34.2333 179.833 33.5467 179.9 32.8H173.18V28.24ZM202.834 43V40.34C202.714 40.6067 202.407 40.9933 201.914 41.5C201.434 42.0067 200.794 42.4667 199.994 42.88C199.194 43.28 198.261 43.48 197.194 43.48C195.594 43.48 194.194 43.0933 192.994 42.32C191.794 41.5333 190.861 40.4867 190.194 39.18C189.527 37.86 189.194 36.4 189.194 34.8C189.194 33.2 189.527 31.7467 190.194 30.44C190.861 29.12 191.794 28.0667 192.994 27.28C194.194 26.4933 195.594 26.1 197.194 26.1C198.221 26.1 199.121 26.2667 199.894 26.6C200.667 26.92 201.294 27.3067 201.774 27.76C202.254 28.2 202.587 28.6067 202.774 28.98V26.58H208.814V43H202.834ZM195.154 34.8C195.154 35.5467 195.327 36.22 195.674 36.82C196.021 37.4067 196.481 37.8667 197.054 38.2C197.641 38.5333 198.287 38.7 198.994 38.7C199.727 38.7 200.374 38.5333 200.934 38.2C201.494 37.8667 201.934 37.4067 202.254 36.82C202.587 36.22 202.754 35.5467 202.754 34.8C202.754 34.0533 202.587 33.3867 202.254 32.8C201.934 32.2 201.494 31.7333 200.934 31.4C200.374 31.0533 199.727 30.88 198.994 30.88C198.287 30.88 197.641 31.0533 197.054 31.4C196.481 31.7333 196.021 32.2 195.674 32.8C195.327 33.3867 195.154 34.0533 195.154 34.8ZM235.252 26.1C236.492 26.1 237.586 26.36 238.532 26.88C239.479 27.3867 240.219 28.1733 240.752 29.24C241.299 30.3067 241.572 31.68 241.572 33.36V43H235.592V34.28C235.592 33.1333 235.419 32.2067 235.072 31.5C234.726 30.7933 234.039 30.44 233.012 30.44C232.399 30.44 231.859 30.6 231.392 30.92C230.926 31.24 230.566 31.6867 230.312 32.26C230.059 32.82 229.932 33.4933 229.932 34.28V43H224.352V34.28C224.352 33.1333 224.159 32.2067 223.772 31.5C223.399 30.7933 222.732 30.44 221.772 30.44C221.159 30.44 220.619 30.6 220.152 30.92C219.686 31.2267 219.326 31.6667 219.072 32.24C218.832 32.8 218.712 33.48 218.712 34.28V43H212.672V26.58H218.712V28.92C218.872 28.5067 219.219 28.0867 219.752 27.66C220.299 27.22 220.972 26.8533 221.772 26.56C222.572 26.2533 223.419 26.1 224.312 26.1C225.286 26.1 226.099 26.2467 226.752 26.54C227.406 26.82 227.939 27.2 228.352 27.68C228.779 28.16 229.119 28.68 229.372 29.24C229.559 28.76 229.926 28.28 230.472 27.8C231.032 27.3067 231.726 26.9 232.552 26.58C233.392 26.26 234.292 26.1 235.252 26.1ZM249.934 36.08C249.974 36.6667 250.161 37.1867 250.494 37.64C250.827 38.0933 251.287 38.4533 251.874 38.72C252.474 38.9733 253.181 39.1 253.994 39.1C254.767 39.1 255.461 39.02 256.074 38.86C256.701 38.7 257.241 38.5 257.694 38.26C258.161 38.02 258.521 37.7733 258.774 37.52L261.134 41.28C260.801 41.64 260.327 41.9933 259.714 42.34C259.114 42.6733 258.321 42.9467 257.334 43.16C256.347 43.3733 255.101 43.48 253.594 43.48C251.781 43.48 250.167 43.14 248.754 42.46C247.341 41.78 246.227 40.78 245.414 39.46C244.601 38.14 244.194 36.5267 244.194 34.62C244.194 33.02 244.541 31.58 245.234 30.3C245.941 29.0067 246.961 27.9867 248.294 27.24C249.627 26.48 251.234 26.1 253.114 26.1C254.901 26.1 256.447 26.4267 257.754 27.08C259.074 27.7333 260.087 28.7067 260.794 30C261.514 31.28 261.874 32.88 261.874 34.8C261.874 34.9067 261.867 35.12 261.854 35.44C261.854 35.76 261.841 35.9733 261.814 36.08H249.934ZM256.154 32.9C256.141 32.4733 256.027 32.0533 255.814 31.64C255.601 31.2133 255.281 30.8667 254.854 30.6C254.427 30.32 253.881 30.18 253.214 30.18C252.547 30.18 251.981 30.3133 251.514 30.58C251.061 30.8333 250.714 31.1667 250.474 31.58C250.234 31.9933 250.101 32.4333 250.074 32.9H256.154Z" fill="#FE7600"/>
<path d="M272.056 43.48C270.469 43.48 269.089 43.0933 267.916 42.32C266.743 41.5333 265.829 40.4867 265.176 39.18C264.536 37.86 264.216 36.4 264.216 34.8C264.216 33.2 264.536 31.7467 265.176 30.44C265.829 29.12 266.743 28.0667 267.916 27.28C269.089 26.4933 270.469 26.1 272.056 26.1C273.109 26.1 274.043 26.2667 274.856 26.6C275.669 26.92 276.329 27.3067 276.836 27.76C277.343 28.2 277.649 28.6067 277.756 28.98V15.48H283.836V43H277.816V40.34C277.563 40.8333 277.149 41.3267 276.576 41.82C276.003 42.3 275.329 42.6933 274.556 43C273.783 43.32 272.949 43.48 272.056 43.48ZM273.916 38.7C274.649 38.7 275.303 38.5333 275.876 38.2C276.463 37.8667 276.923 37.4067 277.256 36.82C277.589 36.22 277.756 35.5467 277.756 34.8C277.756 34.0533 277.589 33.3867 277.256 32.8C276.923 32.2 276.463 31.7333 275.876 31.4C275.303 31.0533 274.649 30.88 273.916 30.88C273.209 30.88 272.569 31.0533 271.996 31.4C271.436 31.7333 270.989 32.2 270.656 32.8C270.336 33.3867 270.176 34.0533 270.176 34.8C270.176 35.5467 270.336 36.22 270.656 36.82C270.989 37.4067 271.436 37.8667 271.996 38.2C272.569 38.5333 273.209 38.7 273.916 38.7ZM295.72 43.48C293.92 43.48 292.32 43.1133 290.92 42.38C289.533 41.6333 288.44 40.6133 287.64 39.32C286.853 38.0133 286.46 36.52 286.46 34.84C286.46 33.16 286.853 31.6667 287.64 30.36C288.44 29.04 289.533 28 290.92 27.24C292.32 26.48 293.92 26.1 295.72 26.1C297.52 26.1 299.106 26.48 300.48 27.24C301.853 28 302.926 29.04 303.7 30.36C304.473 31.6667 304.86 33.16 304.86 34.84C304.86 36.52 304.473 38.0133 303.7 39.32C302.926 40.6133 301.853 41.6333 300.48 42.38C299.106 43.1133 297.52 43.48 295.72 43.48ZM295.72 38.48C296.413 38.48 297.013 38.3267 297.52 38.02C298.026 37.7133 298.42 37.28 298.7 36.72C298.98 36.16 299.12 35.5267 299.12 34.82C299.12 34.1 298.98 33.46 298.7 32.9C298.42 32.34 298.026 31.9 297.52 31.58C297.013 31.26 296.413 31.1 295.72 31.1C295.026 31.1 294.42 31.26 293.9 31.58C293.393 31.9 292.993 32.34 292.7 32.9C292.42 33.46 292.28 34.1 292.28 34.82C292.28 35.5267 292.42 36.16 292.7 36.72C292.993 37.28 293.393 37.7133 293.9 38.02C294.42 38.3267 295.026 38.48 295.72 38.48ZM316.384 43.48C314.584 43.48 312.984 43.1133 311.584 42.38C310.197 41.6333 309.104 40.6133 308.304 39.32C307.517 38.0133 307.124 36.52 307.124 34.84C307.124 33.16 307.517 31.6667 308.304 30.36C309.104 29.04 310.197 28 311.584 27.24C312.984 26.48 314.584 26.1 316.384 26.1C318.184 26.1 319.77 26.48 321.144 27.24C322.517 28 323.59 29.04 324.364 30.36C325.137 31.6667 325.524 33.16 325.524 34.84C325.524 36.52 325.137 38.0133 324.364 39.32C323.59 40.6133 322.517 41.6333 321.144 42.38C319.77 43.1133 318.184 43.48 316.384 43.48ZM316.384 38.48C317.077 38.48 317.677 38.3267 318.184 38.02C318.69 37.7133 319.084 37.28 319.364 36.72C319.644 36.16 319.784 35.5267 319.784 34.82C319.784 34.1 319.644 33.46 319.364 32.9C319.084 32.34 318.69 31.9 318.184 31.58C317.677 31.26 317.077 31.1 316.384 31.1C315.69 31.1 315.084 31.26 314.564 31.58C314.057 31.9 313.657 32.34 313.364 32.9C313.084 33.46 312.944 34.1 312.944 34.82C312.944 35.5267 313.084 36.16 313.364 36.72C313.657 37.28 314.057 37.7133 314.564 38.02C315.084 38.3267 315.69 38.48 316.384 38.48ZM334.248 43H328.168V26.58H334.248V29.12H334.148C334.254 28.8133 334.514 28.4267 334.928 27.96C335.341 27.48 335.921 27.0533 336.668 26.68C337.414 26.2933 338.328 26.1 339.408 26.1C340.168 26.1 340.868 26.22 341.508 26.46C342.148 26.6867 342.614 26.9067 342.908 27.12L340.548 32.06C340.361 31.8333 340.028 31.6 339.548 31.36C339.081 31.1067 338.494 30.98 337.788 30.98C336.974 30.98 336.301 31.1867 335.768 31.6C335.248 32.0133 334.861 32.5133 334.608 33.1C334.368 33.6867 334.248 34.24 334.248 34.76V43ZM356.858 43V40.34C356.738 40.6067 356.431 40.9933 355.938 41.5C355.458 42.0067 354.818 42.4667 354.018 42.88C353.218 43.28 352.284 43.48 351.218 43.48C349.618 43.48 348.218 43.0933 347.018 42.32C345.818 41.5333 344.884 40.4867 344.218 39.18C343.551 37.86 343.218 36.4 343.218 34.8C343.218 33.2 343.551 31.7467 344.218 30.44C344.884 29.12 345.818 28.0667 347.018 27.28C348.218 26.4933 349.618 26.1 351.218 26.1C352.244 26.1 353.144 26.2667 353.918 26.6C354.691 26.92 355.318 27.3067 355.798 27.76C356.278 28.2 356.611 28.6067 356.798 28.98V26.58H362.838V43H356.858ZM349.178 34.8C349.178 35.5467 349.351 36.22 349.698 36.82C350.044 37.4067 350.504 37.8667 351.078 38.2C351.664 38.5333 352.311 38.7 353.018 38.7C353.751 38.7 354.398 38.5333 354.958 38.2C355.518 37.8667 355.958 37.4067 356.278 36.82C356.611 36.22 356.778 35.5467 356.778 34.8C356.778 34.0533 356.611 33.3867 356.278 32.8C355.958 32.2 355.518 31.7333 354.958 31.4C354.398 31.0533 353.751 30.88 353.018 30.88C352.311 30.88 351.664 31.0533 351.078 31.4C350.504 31.7333 350.044 32.2 349.698 32.8C349.351 33.3867 349.178 34.0533 349.178 34.8Z" fill="#585556"/>
<path d="M276.757 86.5816H269.452C268.806 86.5824 268.187 86.8392 267.731 87.2957C267.274 87.7521 267.017 88.3711 267.017 89.0166V91.4516H260.216L254.842 86.0775V79.2767H257.277C257.922 79.2759 258.541 79.0191 258.998 78.5626C259.454 78.1061 259.711 77.4872 259.712 76.8417V69.5367C259.711 68.8911 259.454 68.2722 258.998 67.8157C258.541 67.3592 257.922 67.1024 257.277 67.1017H249.972C249.326 67.1024 248.707 67.3592 248.251 67.8157C247.794 68.2722 247.537 68.8911 247.537 69.5367V76.8417C247.537 77.4872 247.794 78.1061 248.251 78.5626C248.707 79.0191 249.326 79.2759 249.972 79.2767H252.407V86.0775L246.676 91.8084C246.563 91.9214 246.473 92.0556 246.412 92.2032C246.351 92.3509 246.319 92.5093 246.319 92.6691C246.319 92.829 246.351 92.9873 246.412 93.135C246.473 93.2827 246.563 93.4169 246.676 93.5299L252.763 99.6174C252.876 99.7305 253.011 99.8202 253.158 99.8814C253.306 99.9426 253.464 99.9741 253.624 99.9741C253.784 99.9741 253.942 99.9426 254.09 99.8814C254.238 99.8202 254.372 99.7305 254.485 99.6174L260.216 93.8866H267.017V96.3216C267.017 96.9672 267.274 97.5861 267.731 98.0426C268.187 98.4991 268.806 98.7559 269.452 98.7566H276.757C277.402 98.7559 278.021 98.4991 278.478 98.0426C278.934 97.5861 279.191 96.9672 279.192 96.3216V89.0166C279.191 88.3711 278.934 87.7521 278.478 87.2957C278.021 86.8392 277.402 86.5824 276.757 86.5816ZM249.972 69.5367H257.277V76.8417H249.972V69.5367ZM253.624 97.035L249.258 92.6691L253.624 88.3033L257.99 92.6691L253.624 97.035ZM269.452 96.3216V89.0166H276.757V96.3216H269.452Z" fill="#585556"/>
<path d="M326.972 90.2341V89.0166H324.537V90.2341C324.537 92.4945 325.435 94.6622 327.033 96.2605C328.631 97.8587 330.799 98.7566 333.059 98.7566H336.712V96.3216H333.059C331.445 96.3216 329.896 95.6803 328.755 94.5387C327.613 93.397 326.972 91.8486 326.972 90.2341Z" fill="#585556"/>
<path d="M348.887 78.0592V79.2767H351.322V78.0592C351.322 75.7989 350.424 73.6311 348.825 72.0328C347.227 70.4346 345.059 69.5367 342.799 69.5367H339.147V71.9717H342.799C343.599 71.9717 344.39 72.1291 345.129 72.435C345.867 72.741 346.538 73.1894 347.104 73.7547C347.669 74.3199 348.117 74.991 348.423 75.7296C348.729 76.4681 348.887 77.2597 348.887 78.0592Z" fill="#585556"/>
<path d="M333.059 78.0592H325.754C324.785 78.0592 323.856 78.444 323.171 79.1289C322.486 79.8139 322.102 80.743 322.102 81.7117V84.1467H324.537V81.7117C324.537 81.3888 324.665 81.0791 324.893 80.8508C325.121 80.6224 325.431 80.4942 325.754 80.4942H333.059C333.382 80.4942 333.692 80.6224 333.92 80.8508C334.148 81.0791 334.277 81.3888 334.277 81.7117V84.1467H336.712V81.7117C336.712 80.743 336.327 79.8139 335.642 79.1289C334.957 78.444 334.028 78.0592 333.059 78.0592Z" fill="#585556"/>
<path d="M329.407 76.8417C330.37 76.8417 331.311 76.556 332.112 76.0209C332.913 75.4858 333.537 74.7252 333.906 73.8353C334.275 72.9455 334.371 71.9663 334.183 71.0216C333.995 70.0769 333.531 69.2091 332.85 68.5281C332.169 67.847 331.301 67.3831 330.357 67.1952C329.412 67.0073 328.433 67.1038 327.543 67.4724C326.653 67.841 325.892 68.4652 325.357 69.266C324.822 70.0669 324.537 71.0085 324.537 71.9717C324.537 73.2633 325.05 74.502 325.963 75.4153C326.876 76.3286 328.115 76.8417 329.407 76.8417ZM329.407 69.5367C329.888 69.5367 330.359 69.6795 330.759 69.947C331.16 70.2146 331.472 70.5949 331.656 71.0398C331.841 71.4848 331.889 71.9744 331.795 72.4467C331.701 72.919 331.469 73.3529 331.128 73.6935C330.788 74.034 330.354 74.2659 329.882 74.3599C329.409 74.4538 328.92 74.4056 328.475 74.2213C328.03 74.037 327.65 73.7249 327.382 73.3245C327.114 72.924 326.972 72.4533 326.972 71.9717C326.972 71.3259 327.228 70.7065 327.685 70.2499C328.141 69.7932 328.761 69.5367 329.407 69.5367Z" fill="#585556"/>
<path d="M352.539 95.1041H345.234C344.265 95.1041 343.336 95.489 342.651 96.1739C341.966 96.8589 341.582 97.7879 341.582 98.7566V101.192H344.017V98.7566C344.017 98.4337 344.145 98.1241 344.373 97.8957C344.601 97.6674 344.911 97.5391 345.234 97.5391H352.539C352.862 97.5391 353.172 97.6674 353.4 97.8957C353.628 98.1241 353.757 98.4337 353.757 98.7566V101.192H356.192V98.7566C356.192 97.7879 355.807 96.8589 355.122 96.1739C354.437 95.489 353.508 95.1041 352.539 95.1041Z" fill="#585556"/>
<path d="M344.017 89.0166C344.017 89.9798 344.302 90.9214 344.837 91.7223C345.372 92.5231 346.133 93.1473 347.023 93.5159C347.913 93.8845 348.892 93.981 349.837 93.7931C350.781 93.6052 351.649 93.1413 352.33 92.4603C353.011 91.7792 353.475 90.9114 353.663 89.9667C353.851 89.0221 353.754 88.0429 353.386 87.153C353.017 86.2631 352.393 85.5025 351.592 84.9674C350.791 84.4323 349.85 84.1467 348.887 84.1467C347.595 84.1467 346.356 84.6597 345.443 85.573C344.53 86.4863 344.017 87.725 344.017 89.0166ZM351.322 89.0166C351.322 89.4982 351.179 89.969 350.911 90.3695C350.644 90.7699 350.263 91.082 349.818 91.2663C349.373 91.4506 348.884 91.4988 348.412 91.4049C347.939 91.3109 347.505 91.079 347.165 90.7385C346.824 90.3979 346.592 89.964 346.498 89.4917C346.404 89.0193 346.453 88.5298 346.637 88.0848C346.821 87.6399 347.133 87.2596 347.534 86.992C347.934 86.7245 348.405 86.5817 348.887 86.5817C349.532 86.5817 350.152 86.8382 350.608 87.2948C351.065 87.7515 351.322 88.3708 351.322 89.0166Z" fill="#585556"/>
<rect x="171.25" y="69.25" width="10.8333" height="10.8333" rx="1.75" stroke="#585556" stroke-width="2.5"/>
<rect x="189.917" y="69.25" width="10.8333" height="10.8333" rx="1.75" stroke="#585556" stroke-width="2.5"/>
<rect x="171.25" y="87.9167" width="10.8333" height="10.8333" rx="1.75" stroke="#585556" stroke-width="2.5"/>
<path d="M195.333 86.6667L195.333 100" stroke="#585556" stroke-width="2.5" stroke-linecap="round"/>
<path d="M188.667 93.3333H202" stroke="#585556" stroke-width="2.5" stroke-linecap="round"/>
<path d="M172.159 116.398C172.803 116.398 173.349 116.312 173.797 116.139C174.25 115.966 174.569 115.798 174.756 115.635L175.099 116.314C174.898 116.501 174.539 116.69 174.021 116.881C173.508 117.072 172.887 117.168 172.159 117.168C171.478 117.168 170.848 117.047 170.269 116.804C169.695 116.557 169.193 116.216 168.764 115.782C168.335 115.343 168.001 114.837 167.763 114.263C167.525 113.684 167.406 113.061 167.406 112.394C167.406 111.727 167.523 111.104 167.756 110.525C167.994 109.942 168.328 109.431 168.757 108.992C169.186 108.553 169.69 108.21 170.269 107.963C170.848 107.716 171.478 107.592 172.159 107.592C172.887 107.592 173.508 107.688 174.021 107.879C174.539 108.07 174.898 108.259 175.099 108.446L174.756 109.125C174.569 108.962 174.25 108.794 173.797 108.621C173.349 108.448 172.803 108.362 172.159 108.362C171.618 108.362 171.111 108.46 170.64 108.656C170.169 108.847 169.753 109.12 169.394 109.475C169.035 109.83 168.752 110.254 168.547 110.749C168.346 111.239 168.246 111.78 168.246 112.373C168.246 112.97 168.346 113.516 168.547 114.011C168.752 114.506 169.035 114.93 169.394 115.285C169.753 115.64 170.169 115.915 170.64 116.111C171.111 116.302 171.618 116.398 172.159 116.398ZM177.416 117H176.632V111.253H177.416V112.289H177.381C177.399 112.168 177.483 112.014 177.633 111.827C177.787 111.636 177.994 111.465 178.256 111.316C178.517 111.162 178.825 111.085 179.18 111.085C179.45 111.085 179.681 111.12 179.873 111.19C180.069 111.255 180.204 111.323 180.279 111.393L179.929 112.072C179.868 112.011 179.754 111.951 179.586 111.89C179.422 111.829 179.224 111.799 178.991 111.799C178.669 111.799 178.389 111.906 178.151 112.121C177.917 112.336 177.735 112.592 177.605 112.891C177.479 113.185 177.416 113.456 177.416 113.703V117ZM181.396 114.221C181.401 114.622 181.48 114.998 181.634 115.348C181.793 115.698 182.031 115.98 182.348 116.195C182.666 116.41 183.065 116.517 183.545 116.517C183.937 116.517 184.264 116.454 184.525 116.328C184.791 116.197 185.001 116.048 185.155 115.88C185.314 115.707 185.426 115.553 185.491 115.418L185.988 115.908C185.816 116.174 185.615 116.403 185.386 116.594C185.162 116.781 184.896 116.923 184.588 117.021C184.285 117.119 183.923 117.168 183.503 117.168C182.892 117.168 182.369 117.033 181.935 116.762C181.506 116.487 181.177 116.113 180.948 115.642C180.724 115.171 180.612 114.641 180.612 114.053C180.612 113.493 180.724 112.989 180.948 112.541C181.172 112.093 181.494 111.738 181.914 111.477C182.339 111.216 182.85 111.085 183.447 111.085C183.989 111.085 184.458 111.204 184.854 111.442C185.256 111.68 185.566 112.011 185.785 112.436C186.009 112.856 186.121 113.346 186.121 113.906C186.121 113.948 186.119 114.002 186.114 114.067C186.114 114.132 186.112 114.184 186.107 114.221H181.396ZM185.323 113.556C185.319 113.304 185.256 113.038 185.134 112.758C185.018 112.473 184.824 112.233 184.553 112.037C184.287 111.836 183.921 111.736 183.454 111.736C182.969 111.736 182.582 111.834 182.292 112.03C182.008 112.221 181.8 112.457 181.669 112.737C181.539 113.017 181.459 113.29 181.431 113.556H185.323ZM192.265 117V115.796C192.232 115.922 192.122 116.095 191.936 116.314C191.754 116.533 191.499 116.732 191.173 116.909C190.851 117.082 190.468 117.168 190.025 117.168C189.507 117.168 189.028 117.049 188.59 116.811C188.156 116.568 187.806 116.221 187.54 115.768C187.278 115.311 187.148 114.765 187.148 114.13C187.148 113.495 187.278 112.952 187.54 112.499C187.806 112.042 188.156 111.692 188.59 111.449C189.028 111.206 189.507 111.085 190.025 111.085C190.468 111.085 190.851 111.169 191.173 111.337C191.495 111.5 191.749 111.689 191.936 111.904C192.127 112.119 192.234 112.298 192.258 112.443V111.253H193.042V117H192.265ZM187.939 114.13C187.939 114.615 188.044 115.033 188.254 115.383C188.464 115.733 188.734 116.001 189.066 116.188C189.402 116.375 189.754 116.468 190.123 116.468C190.529 116.468 190.89 116.372 191.208 116.181C191.525 115.99 191.775 115.719 191.957 115.369C192.143 115.019 192.237 114.606 192.237 114.13C192.237 113.654 192.143 113.241 191.957 112.891C191.775 112.541 191.525 112.27 191.208 112.079C190.89 111.883 190.529 111.785 190.123 111.785C189.754 111.785 189.402 111.881 189.066 112.072C188.734 112.259 188.464 112.527 188.254 112.877C188.044 113.227 187.939 113.645 187.939 114.13ZM194.317 111.253H195.514V108.894H196.305V111.253H197.873V111.974H196.305V115.383C196.305 115.766 196.375 116.039 196.515 116.202C196.655 116.365 196.83 116.447 197.04 116.447C197.241 116.447 197.392 116.412 197.495 116.342C197.598 116.272 197.658 116.225 197.677 116.202L198.048 116.811C198.02 116.834 197.957 116.876 197.859 116.937C197.761 116.993 197.633 117.044 197.474 117.091C197.315 117.142 197.124 117.168 196.9 117.168C196.513 117.168 196.184 117.044 195.913 116.797C195.647 116.545 195.514 116.144 195.514 115.593V111.974H194.317V111.253ZM199.594 114.221C199.598 114.622 199.678 114.998 199.832 115.348C199.99 115.698 200.228 115.98 200.546 116.195C200.863 116.41 201.262 116.517 201.743 116.517C202.135 116.517 202.461 116.454 202.723 116.328C202.989 116.197 203.199 116.048 203.353 115.88C203.511 115.707 203.623 115.553 203.689 115.418L204.186 115.908C204.013 116.174 203.812 116.403 203.584 116.594C203.36 116.781 203.094 116.923 202.786 117.021C202.482 117.119 202.121 117.168 201.701 117.168C201.089 117.168 200.567 117.033 200.133 116.762C199.703 116.487 199.374 116.113 199.146 115.642C198.922 115.171 198.81 114.641 198.81 114.053C198.81 113.493 198.922 112.989 199.146 112.541C199.37 112.093 199.692 111.738 200.112 111.477C200.536 111.216 201.047 111.085 201.645 111.085C202.186 111.085 202.655 111.204 203.052 111.442C203.453 111.68 203.763 112.011 203.983 112.436C204.207 112.856 204.319 113.346 204.319 113.906C204.319 113.948 204.316 114.002 204.312 114.067C204.312 114.132 204.309 114.184 204.305 114.221H199.594ZM203.521 113.556C203.516 113.304 203.453 113.038 203.332 112.758C203.215 112.473 203.021 112.233 202.751 112.037C202.485 111.836 202.118 111.736 201.652 111.736C201.166 111.736 200.779 111.834 200.49 112.03C200.205 112.221 199.997 112.457 199.867 112.737C199.736 113.017 199.657 113.29 199.629 113.556H203.521Z" fill="#585556"/>
<path d="M244.159 116.398C244.803 116.398 245.349 116.312 245.797 116.139C246.25 115.966 246.569 115.798 246.756 115.635L247.099 116.314C246.898 116.501 246.539 116.69 246.021 116.881C245.508 117.072 244.887 117.168 244.159 117.168C243.478 117.168 242.848 117.047 242.269 116.804C241.695 116.557 241.193 116.216 240.764 115.782C240.335 115.343 240.001 114.837 239.763 114.263C239.525 113.684 239.406 113.061 239.406 112.394C239.406 111.727 239.523 111.104 239.756 110.525C239.994 109.942 240.328 109.431 240.757 108.992C241.186 108.553 241.69 108.21 242.269 107.963C242.848 107.716 243.478 107.592 244.159 107.592C244.887 107.592 245.508 107.688 246.021 107.879C246.539 108.07 246.898 108.259 247.099 108.446L246.756 109.125C246.569 108.962 246.25 108.794 245.797 108.621C245.349 108.448 244.803 108.362 244.159 108.362C243.618 108.362 243.111 108.46 242.64 108.656C242.169 108.847 241.753 109.12 241.394 109.475C241.035 109.83 240.752 110.254 240.547 110.749C240.346 111.239 240.246 111.78 240.246 112.373C240.246 112.97 240.346 113.516 240.547 114.011C240.752 114.506 241.035 114.93 241.394 115.285C241.753 115.64 242.169 115.915 242.64 116.111C243.111 116.302 243.618 116.398 244.159 116.398ZM251.103 117.168C250.529 117.168 250.018 117.035 249.57 116.769C249.126 116.498 248.776 116.134 248.52 115.677C248.268 115.22 248.142 114.709 248.142 114.144C248.142 113.579 248.268 113.066 248.52 112.604C248.776 112.137 249.126 111.769 249.57 111.498C250.018 111.223 250.529 111.085 251.103 111.085C251.677 111.085 252.183 111.223 252.622 111.498C253.065 111.769 253.413 112.137 253.665 112.604C253.917 113.066 254.043 113.579 254.043 114.144C254.043 114.709 253.917 115.22 253.665 115.677C253.413 116.134 253.065 116.498 252.622 116.769C252.183 117.035 251.677 117.168 251.103 117.168ZM251.103 116.447C251.537 116.447 251.915 116.347 252.237 116.146C252.563 115.945 252.815 115.67 252.993 115.32C253.175 114.97 253.266 114.578 253.266 114.144C253.266 113.705 253.175 113.311 252.993 112.961C252.815 112.606 252.563 112.326 252.237 112.121C251.915 111.911 251.537 111.806 251.103 111.806C250.664 111.806 250.281 111.911 249.955 112.121C249.628 112.326 249.374 112.606 249.192 112.961C249.01 113.311 248.919 113.705 248.919 114.144C248.919 114.578 249.01 114.97 249.192 115.32C249.374 115.67 249.628 115.945 249.955 116.146C250.281 116.347 250.664 116.447 251.103 116.447ZM258.357 111.085C258.721 111.085 259.075 111.164 259.421 111.323C259.766 111.477 260.051 111.724 260.275 112.065C260.499 112.401 260.611 112.837 260.611 113.374V117H259.799V113.563C259.799 112.924 259.649 112.464 259.351 112.184C259.052 111.899 258.669 111.757 258.203 111.757C257.895 111.757 257.596 111.846 257.307 112.023C257.022 112.2 256.786 112.443 256.6 112.751C256.418 113.059 256.327 113.404 256.327 113.787V117H255.529V111.253H256.327V112.359C256.359 112.196 256.469 112.016 256.656 111.82C256.847 111.619 257.09 111.447 257.384 111.302C257.682 111.157 258.007 111.085 258.357 111.085ZM265.247 111.085C265.611 111.085 265.966 111.164 266.311 111.323C266.657 111.477 266.941 111.724 267.165 112.065C267.389 112.401 267.501 112.837 267.501 113.374V117H266.689V113.563C266.689 112.924 266.54 112.464 266.241 112.184C265.943 111.899 265.56 111.757 265.093 111.757C264.785 111.757 264.487 111.846 264.197 112.023C263.913 112.2 263.677 112.443 263.49 112.751C263.308 113.059 263.217 113.404 263.217 113.787V117H262.419V111.253H263.217V112.359C263.25 112.196 263.36 112.016 263.546 111.82C263.738 111.619 263.98 111.447 264.274 111.302C264.573 111.157 264.897 111.085 265.247 111.085ZM269.625 114.221C269.63 114.622 269.709 114.998 269.863 115.348C270.022 115.698 270.26 115.98 270.577 116.195C270.894 116.41 271.293 116.517 271.774 116.517C272.166 116.517 272.493 116.454 272.754 116.328C273.02 116.197 273.23 116.048 273.384 115.88C273.543 115.707 273.655 115.553 273.72 115.418L274.217 115.908C274.044 116.174 273.844 116.403 273.615 116.594C273.391 116.781 273.125 116.923 272.817 117.021C272.514 117.119 272.152 117.168 271.732 117.168C271.121 117.168 270.598 117.033 270.164 116.762C269.735 116.487 269.406 116.113 269.177 115.642C268.953 115.171 268.841 114.641 268.841 114.053C268.841 113.493 268.953 112.989 269.177 112.541C269.401 112.093 269.723 111.738 270.143 111.477C270.568 111.216 271.079 111.085 271.676 111.085C272.217 111.085 272.686 111.204 273.083 111.442C273.484 111.68 273.795 112.011 274.014 112.436C274.238 112.856 274.35 113.346 274.35 113.906C274.35 113.948 274.348 114.002 274.343 114.067C274.343 114.132 274.341 114.184 274.336 114.221H269.625ZM273.552 113.556C273.547 113.304 273.484 113.038 273.363 112.758C273.246 112.473 273.053 112.233 272.782 112.037C272.516 111.836 272.15 111.736 271.683 111.736C271.198 111.736 270.81 111.834 270.521 112.03C270.236 112.221 270.029 112.457 269.898 112.737C269.767 113.017 269.688 113.29 269.66 113.556H273.552ZM278.323 116.468C278.734 116.468 279.063 116.405 279.31 116.279C279.557 116.148 279.709 116.057 279.765 116.006L280.185 116.622C280.148 116.65 280.043 116.711 279.87 116.804C279.697 116.893 279.473 116.974 279.198 117.049C278.927 117.128 278.619 117.168 278.274 117.168C277.812 117.168 277.366 117.054 276.937 116.825C276.508 116.596 276.153 116.256 275.873 115.803C275.598 115.35 275.46 114.79 275.46 114.123C275.46 113.451 275.598 112.891 275.873 112.443C276.153 111.99 276.508 111.652 276.937 111.428C277.366 111.199 277.812 111.085 278.274 111.085C278.619 111.085 278.923 111.127 279.184 111.211C279.445 111.295 279.66 111.388 279.828 111.491C279.996 111.594 280.101 111.668 280.143 111.715L279.73 112.324C279.688 112.287 279.609 112.226 279.492 112.142C279.38 112.053 279.226 111.972 279.03 111.897C278.834 111.822 278.598 111.785 278.323 111.785C277.992 111.785 277.665 111.876 277.343 112.058C277.021 112.24 276.755 112.506 276.545 112.856C276.34 113.201 276.237 113.624 276.237 114.123C276.237 114.622 276.34 115.047 276.545 115.397C276.755 115.747 277.021 116.013 277.343 116.195C277.665 116.377 277.992 116.468 278.323 116.468ZM280.987 111.253H282.184V108.894H282.975V111.253H284.543V111.974H282.975V115.383C282.975 115.766 283.045 116.039 283.185 116.202C283.325 116.365 283.5 116.447 283.71 116.447C283.911 116.447 284.062 116.412 284.165 116.342C284.268 116.272 284.328 116.225 284.347 116.202L284.718 116.811C284.69 116.834 284.627 116.876 284.529 116.937C284.431 116.993 284.303 117.044 284.144 117.091C283.985 117.142 283.794 117.168 283.57 117.168C283.183 117.168 282.854 117.044 282.583 116.797C282.317 116.545 282.184 116.144 282.184 115.593V111.974H280.987V111.253Z" fill="#585556"/>
<path d="M311.159 116.398C311.803 116.398 312.349 116.312 312.797 116.139C313.25 115.966 313.569 115.798 313.756 115.635L314.099 116.314C313.898 116.501 313.539 116.69 313.021 116.881C312.508 117.072 311.887 117.168 311.159 117.168C310.478 117.168 309.848 117.047 309.269 116.804C308.695 116.557 308.193 116.216 307.764 115.782C307.335 115.343 307.001 114.837 306.763 114.263C306.525 113.684 306.406 113.061 306.406 112.394C306.406 111.727 306.523 111.104 306.756 110.525C306.994 109.942 307.328 109.431 307.757 108.992C308.186 108.553 308.69 108.21 309.269 107.963C309.848 107.716 310.478 107.592 311.159 107.592C311.887 107.592 312.508 107.688 313.021 107.879C313.539 108.07 313.898 108.259 314.099 108.446L313.756 109.125C313.569 108.962 313.25 108.794 312.797 108.621C312.349 108.448 311.803 108.362 311.159 108.362C310.618 108.362 310.111 108.46 309.64 108.656C309.169 108.847 308.753 109.12 308.394 109.475C308.035 109.83 307.752 110.254 307.547 110.749C307.346 111.239 307.246 111.78 307.246 112.373C307.246 112.97 307.346 113.516 307.547 114.011C307.752 114.506 308.035 114.93 308.394 115.285C308.753 115.64 309.169 115.915 309.64 116.111C310.111 116.302 310.618 116.398 311.159 116.398ZM318.103 117.168C317.529 117.168 317.018 117.035 316.57 116.769C316.126 116.498 315.776 116.134 315.52 115.677C315.268 115.22 315.142 114.709 315.142 114.144C315.142 113.579 315.268 113.066 315.52 112.604C315.776 112.137 316.126 111.769 316.57 111.498C317.018 111.223 317.529 111.085 318.103 111.085C318.677 111.085 319.183 111.223 319.622 111.498C320.065 111.769 320.413 112.137 320.665 112.604C320.917 113.066 321.043 113.579 321.043 114.144C321.043 114.709 320.917 115.22 320.665 115.677C320.413 116.134 320.065 116.498 319.622 116.769C319.183 117.035 318.677 117.168 318.103 117.168ZM318.103 116.447C318.537 116.447 318.915 116.347 319.237 116.146C319.563 115.945 319.815 115.67 319.993 115.32C320.175 114.97 320.266 114.578 320.266 114.144C320.266 113.705 320.175 113.311 319.993 112.961C319.815 112.606 319.563 112.326 319.237 112.121C318.915 111.911 318.537 111.806 318.103 111.806C317.664 111.806 317.281 111.911 316.955 112.121C316.628 112.326 316.374 112.606 316.192 112.961C316.01 113.311 315.919 113.705 315.919 114.144C315.919 114.578 316.01 114.97 316.192 115.32C316.374 115.67 316.628 115.945 316.955 116.146C317.281 116.347 317.664 116.447 318.103 116.447ZM323.355 117H322.543V107.368H323.355V117ZM326.144 117H325.332V107.368H326.144V117ZM332.755 117V115.796C332.722 115.922 332.612 116.095 332.426 116.314C332.244 116.533 331.989 116.732 331.663 116.909C331.341 117.082 330.958 117.168 330.515 117.168C329.997 117.168 329.518 117.049 329.08 116.811C328.646 116.568 328.296 116.221 328.03 115.768C327.768 115.311 327.638 114.765 327.638 114.13C327.638 113.495 327.768 112.952 328.03 112.499C328.296 112.042 328.646 111.692 329.08 111.449C329.518 111.206 329.997 111.085 330.515 111.085C330.958 111.085 331.341 111.169 331.663 111.337C331.985 111.5 332.239 111.689 332.426 111.904C332.617 112.119 332.724 112.298 332.748 112.443V111.253H333.532V117H332.755ZM328.429 114.13C328.429 114.615 328.534 115.033 328.744 115.383C328.954 115.733 329.224 116.001 329.556 116.188C329.892 116.375 330.244 116.468 330.613 116.468C331.019 116.468 331.38 116.372 331.698 116.181C332.015 115.99 332.265 115.719 332.447 115.369C332.633 115.019 332.727 114.606 332.727 114.13C332.727 113.654 332.633 113.241 332.447 112.891C332.265 112.541 332.015 112.27 331.698 112.079C331.38 111.883 331.019 111.785 330.613 111.785C330.244 111.785 329.892 111.881 329.556 112.072C329.224 112.259 328.954 112.527 328.744 112.877C328.534 113.227 328.429 113.645 328.429 114.13ZM335.276 117V107.368H336.088V112.443C336.112 112.289 336.221 112.107 336.417 111.897C336.613 111.682 336.882 111.493 337.222 111.33C337.563 111.167 337.957 111.085 338.405 111.085C338.928 111.085 339.397 111.206 339.812 111.449C340.232 111.692 340.566 112.042 340.813 112.499C341.061 112.952 341.184 113.495 341.184 114.13C341.184 114.765 341.061 115.311 340.813 115.768C340.566 116.221 340.232 116.568 339.812 116.811C339.397 117.049 338.928 117.168 338.405 117.168C337.967 117.168 337.577 117.084 337.236 116.916C336.896 116.748 336.623 116.557 336.417 116.342C336.212 116.127 336.095 115.945 336.067 115.796V117H335.276ZM340.379 114.13C340.379 113.645 340.281 113.227 340.085 112.877C339.894 112.527 339.64 112.259 339.322 112.072C339.01 111.881 338.669 111.785 338.3 111.785C337.899 111.785 337.53 111.883 337.194 112.079C336.858 112.27 336.59 112.541 336.389 112.891C336.189 113.241 336.088 113.654 336.088 114.13C336.088 114.606 336.189 115.019 336.389 115.369C336.59 115.719 336.858 115.99 337.194 116.181C337.53 116.372 337.899 116.468 338.3 116.468C338.669 116.468 339.01 116.375 339.322 116.188C339.64 116.001 339.894 115.733 340.085 115.383C340.281 115.033 340.379 114.615 340.379 114.13ZM344.941 117.168C344.367 117.168 343.856 117.035 343.408 116.769C342.964 116.498 342.614 116.134 342.358 115.677C342.106 115.22 341.98 114.709 341.98 114.144C341.98 113.579 342.106 113.066 342.358 112.604C342.614 112.137 342.964 111.769 343.408 111.498C343.856 111.223 344.367 111.085 344.941 111.085C345.515 111.085 346.021 111.223 346.46 111.498C346.903 111.769 347.251 112.137 347.503 112.604C347.755 113.066 347.881 113.579 347.881 114.144C347.881 114.709 347.755 115.22 347.503 115.677C347.251 116.134 346.903 116.498 346.46 116.769C346.021 117.035 345.515 117.168 344.941 117.168ZM344.941 116.447C345.375 116.447 345.753 116.347 346.075 116.146C346.401 115.945 346.653 115.67 346.831 115.32C347.013 114.97 347.104 114.578 347.104 114.144C347.104 113.705 347.013 113.311 346.831 112.961C346.653 112.606 346.401 112.326 346.075 112.121C345.753 111.911 345.375 111.806 344.941 111.806C344.502 111.806 344.119 111.911 343.793 112.121C343.466 112.326 343.212 112.606 343.03 112.961C342.848 113.311 342.757 113.705 342.757 114.144C342.757 114.578 342.848 114.97 343.03 115.32C343.212 115.67 343.466 115.945 343.793 116.146C344.119 116.347 344.502 116.447 344.941 116.447ZM350.172 117H349.388V111.253H350.172V112.289H350.137C350.155 112.168 350.239 112.014 350.389 111.827C350.543 111.636 350.75 111.465 351.012 111.316C351.273 111.162 351.581 111.085 351.936 111.085C352.206 111.085 352.437 111.12 352.629 111.19C352.825 111.255 352.96 111.323 353.035 111.393L352.685 112.072C352.624 112.011 352.51 111.951 352.342 111.89C352.178 111.829 351.98 111.799 351.747 111.799C351.425 111.799 351.145 111.906 350.907 112.121C350.673 112.336 350.491 112.592 350.361 112.891C350.235 113.185 350.172 113.456 350.172 113.703V117ZM358.485 117V115.796C358.453 115.922 358.343 116.095 358.156 116.314C357.974 116.533 357.72 116.732 357.393 116.909C357.071 117.082 356.689 117.168 356.245 117.168C355.727 117.168 355.249 117.049 354.81 116.811C354.376 116.568 354.026 116.221 353.76 115.768C353.499 115.311 353.368 114.765 353.368 114.13C353.368 113.495 353.499 112.952 353.76 112.499C354.026 112.042 354.376 111.692 354.81 111.449C355.249 111.206 355.727 111.085 356.245 111.085C356.689 111.085 357.071 111.169 357.393 111.337C357.715 111.5 357.97 111.689 358.156 111.904C358.348 112.119 358.455 112.298 358.478 112.443V111.253H359.262V117H358.485ZM354.159 114.13C354.159 114.615 354.264 115.033 354.474 115.383C354.684 115.733 354.955 116.001 355.286 116.188C355.622 116.375 355.975 116.468 356.343 116.468C356.749 116.468 357.111 116.372 357.428 116.181C357.746 115.99 357.995 115.719 358.177 115.369C358.364 115.019 358.457 114.606 358.457 114.13C358.457 113.654 358.364 113.241 358.177 112.891C357.995 112.541 357.746 112.27 357.428 112.079C357.111 111.883 356.749 111.785 356.343 111.785C355.975 111.785 355.622 111.881 355.286 112.072C354.955 112.259 354.684 112.527 354.474 112.877C354.264 113.227 354.159 113.645 354.159 114.13ZM360.538 111.253H361.735V108.894H362.526V111.253H364.094V111.974H362.526V115.383C362.526 115.766 362.596 116.039 362.736 116.202C362.876 116.365 363.051 116.447 363.261 116.447C363.461 116.447 363.613 116.412 363.716 116.342C363.818 116.272 363.879 116.225 363.898 116.202L364.269 116.811C364.241 116.834 364.178 116.876 364.08 116.937C363.982 116.993 363.853 117.044 363.695 117.091C363.536 117.142 363.345 117.168 363.121 117.168C362.733 117.168 362.404 117.044 362.134 116.797C361.868 116.545 361.735 116.144 361.735 115.593V111.974H360.538V111.253ZM365.814 114.221C365.819 114.622 365.898 114.998 366.052 115.348C366.211 115.698 366.449 115.98 366.766 116.195C367.084 116.41 367.483 116.517 367.963 116.517C368.355 116.517 368.682 116.454 368.943 116.328C369.209 116.197 369.419 116.048 369.573 115.88C369.732 115.707 369.844 115.553 369.909 115.418L370.406 115.908C370.234 116.174 370.033 116.403 369.804 116.594C369.58 116.781 369.314 116.923 369.006 117.021C368.703 117.119 368.341 117.168 367.921 117.168C367.31 117.168 366.787 117.033 366.353 116.762C365.924 116.487 365.595 116.113 365.366 115.642C365.142 115.171 365.03 114.641 365.03 114.053C365.03 113.493 365.142 112.989 365.366 112.541C365.59 112.093 365.912 111.738 366.332 111.477C366.757 111.216 367.268 111.085 367.865 111.085C368.407 111.085 368.876 111.204 369.272 111.442C369.674 111.68 369.984 112.011 370.203 112.436C370.427 112.856 370.539 113.346 370.539 113.906C370.539 113.948 370.537 114.002 370.532 114.067C370.532 114.132 370.53 114.184 370.525 114.221H365.814ZM369.741 113.556C369.737 113.304 369.674 113.038 369.552 112.758C369.436 112.473 369.242 112.233 368.971 112.037C368.705 111.836 368.339 111.736 367.872 111.736C367.387 111.736 367 111.834 366.71 112.03C366.426 112.221 366.218 112.457 366.087 112.737C365.957 113.017 365.877 113.29 365.849 113.556H369.741Z" fill="#585556"/>
<defs>
<filter id="filter0_d_320_2882" x="0.436523" y="0.217163" width="84.7453" height="141.94" filterUnits="userSpaceOnUse" color-interpolation-filters="sRGB">
<feFlood flood-opacity="0" result="BackgroundImageFix"/>
<feColorMatrix in="SourceAlpha" type="matrix" values="0 0 0 0 0 0 0 0 0 0 0 0 0 0 0 0 0 0 127 0" result="hardAlpha"/>
<feOffset dy="4"/>
<feGaussianBlur stdDeviation="6"/>
<feComposite in2="hardAlpha" operator="out"/>
<feColorMatrix type="matrix" values="0 0 0 0 0 0 0 0 0 0 0 0 0 0 0 0 0 0 0.25 0"/>
<feBlend mode="normal" in2="BackgroundImageFix" result="effect1_dropShadow_320_2882"/>
<feBlend mode="normal" in="SourceGraphic" in2="effect1_dropShadow_320_2882" result="shape"/>
</filter>
<filter id="filter1_d_320_2882" x="56.9649" y="0.291763" width="96.6158" height="143.416" filterUnits="userSpaceOnUse" color-interpolation-filters="sRGB">
<feFlood flood-opacity="0" result="BackgroundImageFix"/>
<feColorMatrix in="SourceAlpha" type="matrix" values="0 0 0 0 0 0 0 0 0 0 0 0 0 0 0 0 0 0 127 0" result="hardAlpha"/>
<feOffset dy="4"/>
<feGaussianBlur stdDeviation="6"/>
<feComposite in2="hardAlpha" operator="out"/>
<feColorMatrix type="matrix" values="0 0 0 0 0 0 0 0 0 0 0 0 0 0 0 0 0 0 0.25 0"/>
<feBlend mode="normal" in2="BackgroundImageFix" result="effect1_dropShadow_320_2882"/>
<feBlend mode="normal" in="SourceGraphic" in2="effect1_dropShadow_320_2882" result="shape"/>
</filter>
</defs>
</svg>
